<svg xmlns="http://www.w3.org/2000/svg" width="787.963" height="136.184" viewBox="0 0 787.963 136.184"><g transform="translate(-2990 -1238.316)"><g transform="translate(2995 1243.316)"><path d="M66.479,122.864,45,82.284H33.386l-.022-25.909H45.1a30.355,30.355,0,0,0,10.045-1.47A12.67,12.67,0,0,0,61.562,50.2a14.526,14.526,0,0,0,2.25-8.456,15.079,15.079,0,0,0-2.25-8.607,13.139,13.139,0,0,0-6.417-4.918A28.255,28.255,0,0,0,45.1,26.629H33.345v96.2H0V0H53.016Q66.691,0,76.946,4.978A37.28,37.28,0,0,1,92.9,19.311q5.7,9.356,5.7,22.431,0,13.193-5.848,22.25A35.987,35.987,0,0,1,77.727,77.045l25,45.82Z" transform="translate(114.441 1.679)" fill="none" stroke="#fff" stroke-width="10"/><path d="M-95.551,84.169V-38.657h53.016q13.674,0,23.929,5.4A39.175,39.175,0,0,1-2.652-18.086q5.7,9.776,5.7,22.85,0,13.194-5.847,22.85A38.844,38.844,0,0,1-19.175,42.487Q-29.7,47.7-43.734,47.7H-62.209V21.8h11.758a22.4,22.4,0,0,0,10.046-2.069,14.945,14.945,0,0,0,6.417-5.907,17.593,17.593,0,0,0,2.249-9.056,17.23,17.23,0,0,0-2.249-9.026,14.745,14.745,0,0,0-6.417-5.757,22.964,22.964,0,0,0-10.046-2.009H-62.206v96.2Z" transform="translate(95.551 40.336)" fill="none" stroke="#fff" stroke-width="10"/><path d="M182.873,23.282q0,20.511-7.976,34.575a53.281,53.281,0,0,1-21.53,21.291,63.224,63.224,0,0,1-30.227,7.227,62.88,62.88,0,0,1-30.317-7.287,53.543,53.543,0,0,1-21.47-21.35q-7.946-14.064-7.946-34.455,0-20.511,7.946-34.575a53.141,53.141,0,0,1,21.47-21.291A63.3,63.3,0,0,1,123.14-39.81a63.224,63.224,0,0,1,30.227,7.227A53.282,53.282,0,0,1,174.9-11.292Q182.873,2.771,182.873,23.282Zm-34.3,0q0-11.035-2.909-18.622a23.942,23.942,0,0,0-8.576-11.515,23.883,23.883,0,0,0-13.944-3.928A23.883,23.883,0,0,0,109.2-6.854,23.942,23.942,0,0,0,100.62,4.661q-2.909,7.587-2.909,18.622T100.62,41.9A23.942,23.942,0,0,0,109.2,53.419a23.883,23.883,0,0,0,13.944,3.928,23.883,23.883,0,0,0,13.944-3.928A23.942,23.942,0,0,0,145.66,41.9Q148.569,34.317,148.569,23.282Z" transform="translate(168.153 39.81)" fill="none" stroke="#fff" stroke-width="10"/><path d="M152.6-11.789V-38.657H259.354v26.868H222.411V84.169H189.545V-11.789Z" transform="translate(208.258 40.559)" fill="none" stroke="#fff" stroke-width="10"/><path d="M182.873,23.282q0,20.511-7.976,34.575a53.281,53.281,0,0,1-21.53,21.291,63.224,63.224,0,0,1-30.227,7.227,62.88,62.88,0,0,1-30.317-7.287,53.543,53.543,0,0,1-21.47-21.35q-7.946-14.064-7.946-34.455,0-20.511,7.946-34.575a53.141,53.141,0,0,1,21.47-21.291A63.3,63.3,0,0,1,123.14-39.81a63.224,63.224,0,0,1,30.227,7.227A53.282,53.282,0,0,1,174.9-11.292Q182.873,2.771,182.873,23.282Zm-34.3,0q0-11.035-2.909-18.622a23.942,23.942,0,0,0-8.576-11.515,23.883,23.883,0,0,0-13.944-3.928A23.883,23.883,0,0,0,109.2-6.854,23.942,23.942,0,0,0,100.62,4.661q-2.909,7.587-2.909,18.622T100.62,41.9A23.942,23.942,0,0,0,109.2,53.419a23.883,23.883,0,0,0,13.944,3.928,23.883,23.883,0,0,0,13.944-3.928A23.942,23.942,0,0,0,145.66,41.9Q148.569,34.317,148.569,23.282Z" transform="translate(414.038 39.81)" fill="none" stroke="#fff" stroke-width="10"/></g><g transform="translate(745 3232.075)"><circle cx="20.12" cy="20.12" r="20.12" transform="translate(2872 -1898)" fill="#6554fb"/><rect width="40.241" height="40.241" transform="translate(2928.337 -1898)" fill="#ece24e"/><path d="M23.34,0l23.34,40.241H0Z" transform="translate(2986.284 -1898)" fill="#69f380"/></g></g></svg>