<svg xmlns="http://www.w3.org/2000/svg" width="797.5" height="834.5"><ellipse cx="308.5" cy="54.5" fill="#3f3d56" data-name="Ellipse 13" rx="308.5" ry="54.5" transform="translate(0 725.5)"/><circle cx="301.5" cy="301.5" r="301.5" fill="#3f3d56" data-name="Ellipse 14" transform="translate(194.5)"/><circle cx="248.898" cy="248.898" r="248.898" data-name="Ellipse 15" opacity=".05" transform="translate(247.102 52.602)"/><circle cx="203.994" cy="203.994" r="203.994" data-name="Ellipse 16" opacity=".05" transform="translate(292.006 97.506)"/><circle cx="146.26" cy="146.26" r="146.26" data-name="Ellipse 17" opacity=".05" transform="translate(349.74 155.24)"/><path fill="#d0cde1" d="M197.17 328.482s-23.7 66.722-13.169 90.426 27.216 46.53 27.216 46.53-6.145-132.566-14.047-136.956Z" data-name="Path 39"/><path d="M197.17 328.482s-23.7 66.722-13.169 90.426 27.216 46.53 27.216 46.53-6.145-132.566-14.047-136.956Z" data-name="Path 40" opacity=".1"/><path fill="#2f2e41" d="M213.85 482.997s-1.756 16.68-2.634 17.558.878 2.634 0 5.268-1.756 6.145 0 7.023-9.657 78.135-9.657 78.135-28.093 36.869-16.679 94.816l3.512 58.821s27.216 1.756 27.216-7.9c0 0-1.756-11.413-1.756-16.68s4.39-5.268 1.756-7.9-2.634-4.39-2.634-4.39 4.39-3.512 3.512-4.39 7.9-63.211 7.9-63.211 9.657-9.657 9.657-14.925v-5.272s4.39-11.413 4.39-12.291 23.7-54.431 23.7-54.431l9.657 38.629 10.535 55.309s5.268 50.042 15.8 69.356c0 0 18.436 63.211 18.436 61.455s30.727-6.145 29.849-14.047-18.436-118.52-18.436-118.52l4.39-164.172Z" data-name="Path 41"/><path fill="#2f2e41" d="M190.15 740.228s-23.7 46.53-7.9 48.286 21.948 1.756 28.971-5.268c3.84-3.84 11.615-8.991 17.876-12.873a23.117 23.117 0 0 0 10.969-21.982c-.463-4.3-2.068-7.834-6.019-8.164-10.535-.878-22.826-10.535-22.826-10.535Z" data-name="Path 42"/><path fill="#2f2e41" d="M320.958 774.467s-23.7 46.53-7.9 48.286 21.948 1.756 28.971-5.268c3.84-3.84 11.615-8.991 17.876-12.873a23.117 23.117 0 0 0 10.969-21.982c-.463-4.3-2.068-7.834-6.019-8.164-10.535-.878-22.826-10.535-22.826-10.535Z" data-name="Path 43"/><circle cx="36.905" cy="36.905" r="36.905" fill="#ffb8b8" data-name="Ellipse 18" transform="translate(259 178.528)"/><path fill="#ffb8b8" d="M272.18 227.558s-26.36 48.5-28.469 48.5 47.449 15.816 47.449 15.816 13.707-46.394 15.816-50.612Z" data-name="Path 44"/><path fill="#d0cde1" d="M312.617 280.635s-52.675-28.971-57.943-28.094-61.455 50.042-60.577 70.234 7.9 53.553 7.9 53.553 2.634 93.06 7.9 93.938-.878 16.68.878 16.68 122.909 0 123.787-2.634-21.945-203.677-21.945-203.677Z" data-name="Path 45"/><path fill="#ffb8b8" d="M342.028 489.142s16.68 50.92 2.634 49.164-20.192-43.9-20.192-43.9Z" data-name="Path 46"/><path fill="#d0cde1" d="M297.25 277.563s-32.483 7.023-27.216 50.92 14.925 87.792 14.925 87.792l32.491 71.112 3.512 13.169 23.7-6.145-17.559-101.84s-6.145-108.863-14.047-112.374a34 34 0 0 0-15.806-2.634Z" data-name="Path 47"/><path d="m277.5 414.958 40.385 71.989-34.025-75.857Z" data-name="Path 48" opacity=".1"/><path fill="#2f2e41" d="m332.65 204.566.122-2.82 5.61 1.4a6.27 6.27 0 0 0-2.514-4.615l5.976-.334a64.477 64.477 0 0 0-43.124-26.651c-12.926-1.873-27.318.838-36.182 10.43-4.3 4.653-7 10.57-8.922 16.607-3.539 11.118-4.26 24.372 3.12 33.409 7.5 9.185 20.6 10.984 32.406 12.121 4.153.4 8.506.772 12.355-.839a29.722 29.722 0 0 0-1.654-13.037 8.686 8.686 0 0 1-.879-4.152c.525-3.512 5.209-4.4 8.728-3.922s7.75 1.2 10.062-1.494c1.593-1.856 1.5-4.559 1.71-7 .568-6.634 13.122-7.712 13.186-9.103Z" data-name="Path 49"/><circle cx="43" cy="43" r="43" fill="#6c63ff" data-name="Ellipse 19" transform="translate(516 701.5)"/><circle cx="43" cy="43" r="43" fill="#6c63ff" data-name="Ellipse 20" transform="translate(11 686.5)"/><circle cx="31" cy="31" r="31" fill="#6c63ff" data-name="Ellipse 21" transform="translate(23 641.5)"/><circle cx="22" cy="22" r="22" fill="#6c63ff" data-name="Ellipse 22" transform="translate(32 602.5)"/></svg>